<svg xmlns="http://www.w3.org/2000/svg" xmlns:xlink="http://www.w3.org/1999/xlink" width="1800" zoomAndPan="magnify" viewBox="0 0 1350 449.999984" height="600" preserveAspectRatio="xMidYMid meet" version="1.0"><defs><g/><clipPath id="68aa3d872a"><path d="M 103 92.558594 L 273.75 92.558594 L 273.75 263 L 103 263 Z M 103 92.558594 " clip-rule="nonzero"/></clipPath><clipPath id="e87f1d3b7c"><path d="M 8 187 L 180 187 L 180 357.308594 L 8 357.308594 Z M 8 187 " clip-rule="nonzero"/></clipPath></defs><g clip-path="url(#68aa3d872a)"><path fill="#3d3d3d" d="M 184.25 92.585938 C 160.355469 92.585938 137.917969 101.859375 121.066406 118.71875 L 108.027344 131.757812 C 104.898438 134.886719 103.183594 139.042969 103.183594 143.464844 C 103.183594 147.894531 104.902344 152.050781 108.03125 155.171875 C 114.292969 161.429688 125.195312 161.429688 131.449219 155.171875 L 144.484375 142.132812 C 166.410156 120.214844 202.089844 120.222656 224.015625 142.132812 C 234.65625 152.769531 240.511719 166.894531 240.511719 181.898438 C 240.511719 196.90625 234.652344 211.027344 224.011719 221.667969 L 210.976562 234.707031 C 207.847656 237.835938 206.128906 241.992188 206.128906 246.414062 C 206.128906 250.84375 207.851562 255 210.980469 258.121094 C 214.109375 261.25 218.265625 262.972656 222.6875 262.972656 C 227.109375 262.972656 231.269531 261.25 234.398438 258.121094 L 247.429688 245.082031 C 264.324219 228.183594 273.628906 205.75 273.628906 181.898438 C 273.628906 158.050781 264.324219 135.613281 247.429688 118.71875 C 230.582031 101.859375 208.144531 92.585938 184.25 92.585938 Z M 184.25 92.585938 " fill-opacity="1" fill-rule="nonzero"/></g><g clip-path="url(#e87f1d3b7c)"><path fill="#3d3d3d" d="M 98.050781 357.410156 C 121.941406 357.410156 144.382812 348.128906 161.238281 331.28125 L 174.273438 318.238281 C 177.402344 315.109375 179.121094 310.957031 179.121094 306.53125 C 179.121094 302.101562 177.398438 297.945312 174.269531 294.828125 C 168.007812 288.558594 157.105469 288.578125 150.855469 294.828125 L 137.820312 307.867188 C 115.910156 329.792969 80.226562 329.800781 58.285156 307.867188 C 36.359375 285.941406 36.359375 250.253906 58.285156 228.328125 L 71.324219 215.289062 C 77.78125 208.835938 77.78125 198.328125 71.324219 191.875 C 64.871094 185.425781 54.363281 185.425781 47.910156 191.875 L 34.871094 204.917969 C 0.0429688 239.753906 0.0429688 296.441406 34.871094 331.28125 C 51.71875 348.128906 74.15625 357.410156 98.050781 357.410156 Z M 98.050781 357.410156 " fill-opacity="1" fill-rule="nonzero"/></g><path fill="#3d3d3d" d="M 84.933594 281.21875 C 88.0625 284.347656 92.21875 286.070312 96.640625 286.070312 C 101.066406 286.070312 105.226562 284.347656 108.347656 281.21875 L 197.367188 192.191406 C 200.496094 189.0625 202.21875 184.90625 202.21875 180.484375 C 202.21875 176.0625 200.496094 171.90625 197.367188 168.777344 C 191.117188 162.519531 180.203125 162.519531 173.957031 168.777344 L 84.933594 257.804688 C 81.804688 260.933594 80.085938 265.089844 80.085938 269.511719 C 80.085938 273.9375 81.804688 278.089844 84.933594 281.21875 Z M 84.933594 281.21875 " fill-opacity="1" fill-rule="nonzero"/><g fill="#3d3d3d" fill-opacity="1"><g transform="translate(294.227623, 287.57699)"><g><path d="M 67.234375 2.09375 C 61.066406 2.09375 54.898438 1.640625 48.734375 0.734375 C 42.578125 -0.171875 36.765625 -1.566406 31.296875 -3.453125 C 25.835938 -5.347656 20.9375 -7.695312 16.59375 -10.5 C 14.070312 -12.1875 12.320312 -14.21875 11.34375 -16.59375 C 10.363281 -18.976562 10.046875 -21.328125 10.390625 -23.640625 C 10.742188 -25.953125 11.65625 -27.984375 13.125 -29.734375 C 14.601562 -31.484375 16.460938 -32.566406 18.703125 -32.984375 C 20.941406 -33.410156 23.390625 -32.78125 26.046875 -31.09375 C 32.210938 -27.457031 38.726562 -24.796875 45.59375 -23.109375 C 52.457031 -21.429688 59.671875 -20.59375 67.234375 -20.59375 C 78.296875 -20.59375 86.347656 -22.445312 91.390625 -26.15625 C 96.441406 -29.863281 98.96875 -34.660156 98.96875 -40.546875 C 98.96875 -45.453125 97.179688 -49.304688 93.609375 -52.109375 C 90.035156 -54.910156 83.90625 -57.222656 75.21875 -59.046875 L 52.109375 -63.875 C 38.796875 -66.675781 28.882812 -71.398438 22.375 -78.046875 C 15.863281 -84.703125 12.609375 -93.492188 12.609375 -104.421875 C 12.609375 -111.285156 14.007812 -117.519531 16.8125 -123.125 C 19.613281 -128.726562 23.566406 -133.5625 28.671875 -137.625 C 33.785156 -141.6875 39.878906 -144.800781 46.953125 -146.96875 C 54.023438 -149.144531 61.835938 -150.234375 70.390625 -150.234375 C 78.796875 -150.234375 86.78125 -149.179688 94.34375 -147.078125 C 101.90625 -144.972656 108.695312 -141.890625 114.71875 -137.828125 C 116.957031 -136.285156 118.460938 -134.394531 119.234375 -132.15625 C 120.003906 -129.914062 120.175781 -127.707031 119.75 -125.53125 C 119.332031 -123.363281 118.351562 -121.507812 116.8125 -119.96875 C 115.28125 -118.425781 113.359375 -117.515625 111.046875 -117.234375 C 108.734375 -116.960938 106.101562 -117.664062 103.15625 -119.34375 C 97.976562 -122.28125 92.726562 -124.378906 87.40625 -125.640625 C 82.082031 -126.898438 76.335938 -127.53125 70.171875 -127.53125 C 63.734375 -127.53125 58.203125 -126.617188 53.578125 -124.796875 C 48.953125 -122.984375 45.414062 -120.429688 42.96875 -117.140625 C 40.519531 -113.847656 39.296875 -109.957031 39.296875 -105.46875 C 39.296875 -100.425781 40.972656 -96.398438 44.328125 -93.390625 C 47.691406 -90.378906 53.4375 -88.035156 61.5625 -86.359375 L 84.46875 -81.515625 C 98.332031 -78.578125 108.660156 -73.957031 115.453125 -67.65625 C 122.242188 -61.351562 125.640625 -52.945312 125.640625 -42.4375 C 125.640625 -35.71875 124.273438 -29.625 121.546875 -24.15625 C 118.816406 -18.695312 114.894531 -14.003906 109.78125 -10.078125 C 104.664062 -6.160156 98.535156 -3.148438 91.390625 -1.046875 C 84.253906 1.046875 76.203125 2.09375 67.234375 2.09375 Z M 67.234375 2.09375 "/></g></g></g><g fill="#3d3d3d" fill-opacity="1"><g transform="translate(416.092348, 287.57699)"><g><path d="M 60.515625 2.09375 C 49.867188 2.09375 40.625 -0.0703125 32.78125 -4.40625 C 24.9375 -8.75 18.84375 -14.945312 14.5 -23 C 10.15625 -31.0625 7.984375 -40.554688 7.984375 -51.484375 C 7.984375 -59.742188 9.207031 -67.128906 11.65625 -73.640625 C 14.113281 -80.148438 17.648438 -85.75 22.265625 -90.4375 C 26.890625 -95.132812 32.421875 -98.707031 38.859375 -101.15625 C 45.304688 -103.613281 52.523438 -104.84375 60.515625 -104.84375 C 71.160156 -104.84375 80.40625 -102.671875 88.25 -98.328125 C 96.09375 -93.984375 102.179688 -87.816406 106.515625 -79.828125 C 110.859375 -71.847656 113.03125 -62.398438 113.03125 -51.484375 C 113.03125 -43.210938 111.804688 -35.785156 109.359375 -29.203125 C 106.910156 -22.617188 103.375 -16.976562 98.75 -12.28125 C 94.125 -7.59375 88.585938 -4.023438 82.140625 -1.578125 C 75.703125 0.867188 68.492188 2.09375 60.515625 2.09375 Z M 60.515625 -17.859375 C 65.691406 -17.859375 70.238281 -19.117188 74.15625 -21.640625 C 78.082031 -24.160156 81.128906 -27.90625 83.296875 -32.875 C 85.472656 -37.851562 86.5625 -44.054688 86.5625 -51.484375 C 86.5625 -62.679688 84.179688 -71.046875 79.421875 -76.578125 C 74.660156 -82.117188 68.359375 -84.890625 60.515625 -84.890625 C 55.328125 -84.890625 50.769531 -83.660156 46.84375 -81.203125 C 42.925781 -78.753906 39.878906 -75.039062 37.703125 -70.0625 C 35.535156 -65.09375 34.453125 -58.898438 34.453125 -51.484375 C 34.453125 -40.410156 36.832031 -32.035156 41.59375 -26.359375 C 46.363281 -20.691406 52.671875 -17.859375 60.515625 -17.859375 Z M 60.515625 -17.859375 "/></g></g></g><g fill="#3d3d3d" fill-opacity="1"><g transform="translate(526.400922, 287.57699)"><g><path d="M 61.140625 2.09375 C 50.359375 2.09375 40.972656 -0.109375 32.984375 -4.515625 C 25.003906 -8.929688 18.84375 -15.203125 14.5 -23.328125 C 10.15625 -31.453125 7.984375 -40.972656 7.984375 -51.890625 C 7.984375 -60.160156 9.207031 -67.550781 11.65625 -74.0625 C 14.113281 -80.570312 17.648438 -86.101562 22.265625 -90.65625 C 26.890625 -95.207031 32.492188 -98.707031 39.078125 -101.15625 C 45.660156 -103.613281 53.015625 -104.84375 61.140625 -104.84375 C 65.765625 -104.84375 70.769531 -104.210938 76.15625 -102.953125 C 81.550781 -101.691406 86.628906 -99.59375 91.390625 -96.65625 C 93.640625 -95.25 95.113281 -93.566406 95.8125 -91.609375 C 96.507812 -89.648438 96.644531 -87.65625 96.21875 -85.625 C 95.800781 -83.59375 94.925781 -81.835938 93.59375 -80.359375 C 92.269531 -78.890625 90.625 -77.976562 88.65625 -77.625 C 86.695312 -77.28125 84.53125 -77.738281 82.15625 -79 C 79.070312 -80.820312 75.914062 -82.1875 72.6875 -83.09375 C 69.46875 -84.007812 66.390625 -84.46875 63.453125 -84.46875 C 58.828125 -84.46875 54.765625 -83.726562 51.265625 -82.25 C 47.765625 -80.78125 44.785156 -78.679688 42.328125 -75.953125 C 39.878906 -73.222656 38.023438 -69.828125 36.765625 -65.765625 C 35.503906 -61.703125 34.875 -57.007812 34.875 -51.6875 C 34.875 -41.320312 37.359375 -33.160156 42.328125 -27.203125 C 47.304688 -21.253906 54.347656 -18.28125 63.453125 -18.28125 C 66.390625 -18.28125 69.429688 -18.695312 72.578125 -19.53125 C 75.734375 -20.375 78.925781 -21.707031 82.15625 -23.53125 C 84.53125 -24.789062 86.660156 -25.207031 88.546875 -24.78125 C 90.441406 -24.363281 92.019531 -23.421875 93.28125 -21.953125 C 94.539062 -20.484375 95.3125 -18.734375 95.59375 -16.703125 C 95.875 -14.671875 95.628906 -12.675781 94.859375 -10.71875 C 94.085938 -8.757812 92.65625 -7.148438 90.5625 -5.890625 C 85.9375 -3.085938 81.03125 -1.054688 75.84375 0.203125 C 70.664062 1.460938 65.765625 2.09375 61.140625 2.09375 Z M 61.140625 2.09375 "/></g></g></g><g fill="#3d3d3d" fill-opacity="1"><g transform="translate(614.857816, 287.57699)"><g><path d="M 26.6875 1.46875 C 22.476562 1.46875 19.253906 0.207031 17.015625 -2.3125 C 14.773438 -4.832031 13.65625 -8.332031 13.65625 -12.8125 L 13.65625 -89.921875 C 13.65625 -94.546875 14.773438 -98.082031 17.015625 -100.53125 C 19.253906 -102.988281 22.476562 -104.21875 26.6875 -104.21875 C 30.882812 -104.21875 34.140625 -102.988281 36.453125 -100.53125 C 38.765625 -98.082031 39.921875 -94.546875 39.921875 -89.921875 L 39.921875 -12.8125 C 39.921875 -8.332031 38.800781 -4.832031 36.5625 -2.3125 C 34.320312 0.207031 31.03125 1.46875 26.6875 1.46875 Z M 26.6875 -123.75 C 21.78125 -123.75 17.960938 -124.972656 15.234375 -127.421875 C 12.503906 -129.878906 11.140625 -133.28125 11.140625 -137.625 C 11.140625 -142.101562 12.503906 -145.53125 15.234375 -147.90625 C 17.960938 -150.289062 21.78125 -151.484375 26.6875 -151.484375 C 31.726562 -151.484375 35.578125 -150.289062 38.234375 -147.90625 C 40.898438 -145.53125 42.234375 -142.101562 42.234375 -137.625 C 42.234375 -133.28125 40.898438 -129.878906 38.234375 -127.421875 C 35.578125 -124.972656 31.726562 -123.75 26.6875 -123.75 Z M 26.6875 -123.75 "/></g></g></g><g fill="#3d3d3d" fill-opacity="1"><g transform="translate(657.720422, 287.57699)"><g><path d="M 47.484375 2.09375 C 40.054688 2.09375 33.4375 0.660156 27.625 -2.203125 C 21.8125 -5.078125 17.257812 -8.960938 13.96875 -13.859375 C 10.675781 -18.765625 9.03125 -24.300781 9.03125 -30.46875 C 9.03125 -38.03125 10.988281 -44.015625 14.90625 -48.421875 C 18.832031 -52.835938 25.207031 -56.023438 34.03125 -57.984375 C 42.863281 -59.953125 54.703125 -60.9375 69.546875 -60.9375 L 80.046875 -60.9375 L 80.046875 -45.796875 L 69.75 -45.796875 C 61.070312 -45.796875 54.140625 -45.375 48.953125 -44.53125 C 43.773438 -43.695312 40.097656 -42.265625 37.921875 -40.234375 C 35.753906 -38.203125 34.671875 -35.363281 34.671875 -31.71875 C 34.671875 -27.101562 36.28125 -23.320312 39.5 -20.375 C 42.71875 -17.4375 47.203125 -15.96875 52.953125 -15.96875 C 57.566406 -15.96875 61.660156 -17.050781 65.234375 -19.21875 C 68.804688 -21.394531 71.644531 -24.375 73.75 -28.15625 C 75.851562 -31.9375 76.90625 -36.28125 76.90625 -41.1875 L 76.90625 -65.34375 C 76.90625 -72.34375 75.363281 -77.382812 72.28125 -80.46875 C 69.195312 -83.550781 64.015625 -85.09375 56.734375 -85.09375 C 52.671875 -85.09375 48.289062 -84.601562 43.59375 -83.625 C 38.90625 -82.644531 33.96875 -80.960938 28.78125 -78.578125 C 26.125 -77.316406 23.78125 -76.96875 21.75 -77.53125 C 19.71875 -78.09375 18.140625 -79.25 17.015625 -81 C 15.898438 -82.75 15.34375 -84.671875 15.34375 -86.765625 C 15.34375 -88.867188 15.898438 -90.9375 17.015625 -92.96875 C 18.140625 -95 20.03125 -96.503906 22.6875 -97.484375 C 29.132812 -100.148438 35.332031 -102.039062 41.28125 -103.15625 C 47.238281 -104.28125 52.664062 -104.84375 57.5625 -104.84375 C 67.65625 -104.84375 75.957031 -103.300781 82.46875 -100.21875 C 88.976562 -97.132812 93.84375 -92.476562 97.0625 -86.25 C 100.289062 -80.019531 101.90625 -72 101.90625 -62.1875 L 101.90625 -11.765625 C 101.90625 -7.421875 100.851562 -4.09375 98.75 -1.78125 C 96.644531 0.53125 93.632812 1.6875 89.71875 1.6875 C 85.789062 1.6875 82.738281 0.53125 80.5625 -1.78125 C 78.394531 -4.09375 77.3125 -7.421875 77.3125 -11.765625 L 77.3125 -21.84375 L 79 -21.84375 C 78.019531 -16.945312 76.09375 -12.710938 73.21875 -9.140625 C 70.351562 -5.566406 66.75 -2.800781 62.40625 -0.84375 C 58.0625 1.113281 53.085938 2.09375 47.484375 2.09375 Z M 47.484375 2.09375 "/></g></g></g><g fill="#3d3d3d" fill-opacity="1"><g transform="translate(761.935715, 287.57699)"><g><path d="M 29.828125 0 C 25.492188 0 22.132812 -1.222656 19.75 -3.671875 C 17.363281 -6.128906 16.171875 -9.53125 16.171875 -13.875 L 16.171875 -135.09375 C 16.171875 -139.582031 17.328125 -142.976562 19.640625 -145.28125 C 21.953125 -147.59375 25.28125 -148.75 29.625 -148.75 C 33.96875 -148.75 37.296875 -147.59375 39.609375 -145.28125 C 41.921875 -142.976562 43.078125 -139.582031 43.078125 -135.09375 L 43.078125 -22.90625 L 104 -22.90625 C 107.78125 -22.90625 110.6875 -21.921875 112.71875 -19.953125 C 114.75 -17.992188 115.765625 -15.195312 115.765625 -11.5625 C 115.765625 -7.914062 114.75 -5.078125 112.71875 -3.046875 C 110.6875 -1.015625 107.78125 0 104 0 Z M 29.828125 0 "/></g></g></g><g fill="#3d3d3d" fill-opacity="1"><g transform="translate(869.313515, 287.57699)"><g><path d="M 38.65625 39.296875 C 36.5625 39.296875 34.878906 38.734375 33.609375 37.609375 C 32.347656 36.484375 31.613281 34.972656 31.40625 33.078125 C 31.195312 31.191406 31.515625 29.269531 32.359375 27.3125 L 46.859375 -5.25 L 46.859375 2.09375 L 6.515625 -91.609375 C 5.671875 -93.710938 5.390625 -95.671875 5.671875 -97.484375 C 5.953125 -99.304688 6.789062 -100.773438 8.1875 -101.890625 C 9.59375 -103.015625 11.554688 -103.578125 14.078125 -103.578125 C 16.316406 -103.578125 18.066406 -103.085938 19.328125 -102.109375 C 20.585938 -101.128906 21.707031 -99.378906 22.6875 -96.859375 L 57.15625 -12.390625 L 51.484375 -12.390625 L 86.359375 -96.859375 C 87.472656 -99.378906 88.660156 -101.128906 89.921875 -102.109375 C 91.179688 -103.085938 93.003906 -103.578125 95.390625 -103.578125 C 97.628906 -103.578125 99.34375 -103.015625 100.53125 -101.890625 C 101.726562 -100.773438 102.429688 -99.34375 102.640625 -97.59375 C 102.847656 -95.84375 102.53125 -93.914062 101.6875 -91.8125 L 47.90625 32.5625 C 46.78125 35.082031 45.550781 36.832031 44.21875 37.8125 C 42.894531 38.800781 41.039062 39.296875 38.65625 39.296875 Z M 38.65625 39.296875 "/></g></g></g><g fill="#3d3d3d" fill-opacity="1"><g transform="translate(966.595154, 287.57699)"><g><path d="M 24.375 1.46875 C 21.570312 1.46875 19.46875 0.695312 18.0625 -0.84375 C 16.664062 -2.382812 15.96875 -4.554688 15.96875 -7.359375 L 15.96875 -94.96875 C 15.96875 -97.769531 16.664062 -99.90625 18.0625 -101.375 C 19.46875 -102.84375 21.5 -103.578125 24.15625 -103.578125 C 26.820312 -103.578125 28.890625 -102.84375 30.359375 -101.375 C 31.828125 -99.90625 32.5625 -97.769531 32.5625 -94.96875 L 32.5625 -76.90625 L 30.25 -79.421875 C 33.195312 -87.546875 37.992188 -93.671875 44.640625 -97.796875 C 51.296875 -101.929688 58.96875 -104 67.65625 -104 C 75.78125 -104 82.535156 -102.523438 87.921875 -99.578125 C 93.316406 -96.640625 97.34375 -92.191406 100 -86.234375 C 102.664062 -80.285156 104 -72.757812 104 -63.65625 L 104 -7.359375 C 104 -4.554688 103.265625 -2.382812 101.796875 -0.84375 C 100.328125 0.695312 98.257812 1.46875 95.59375 1.46875 C 92.789062 1.46875 90.65625 0.695312 89.1875 -0.84375 C 87.71875 -2.382812 86.984375 -4.554688 86.984375 -7.359375 L 86.984375 -62.609375 C 86.984375 -72.140625 85.125 -79.109375 81.40625 -83.515625 C 77.695312 -87.929688 71.78125 -90.140625 63.65625 -90.140625 C 54.269531 -90.140625 46.8125 -87.234375 41.28125 -81.421875 C 35.75 -75.609375 32.984375 -67.867188 32.984375 -58.203125 L 32.984375 -7.359375 C 32.984375 -1.472656 30.113281 1.46875 24.375 1.46875 Z M 24.375 1.46875 "/></g></g></g><g fill="#3d3d3d" fill-opacity="1"><g transform="translate(1075.222855, 287.57699)"><g><path d="M 24.375 1.46875 C 21.570312 1.46875 19.46875 0.695312 18.0625 -0.84375 C 16.664062 -2.382812 15.96875 -4.554688 15.96875 -7.359375 L 15.96875 -140.984375 C 15.96875 -143.785156 16.664062 -145.921875 18.0625 -147.390625 C 19.46875 -148.859375 21.570312 -149.59375 24.375 -149.59375 C 27.03125 -149.59375 29.128906 -148.859375 30.671875 -147.390625 C 32.210938 -145.921875 32.984375 -143.785156 32.984375 -140.984375 L 32.984375 -56.734375 L 33.40625 -56.734375 L 76.484375 -97.90625 C 78.441406 -99.726562 80.15625 -101.128906 81.625 -102.109375 C 83.09375 -103.085938 85.085938 -103.578125 87.609375 -103.578125 C 89.859375 -103.578125 91.613281 -102.984375 92.875 -101.796875 C 94.132812 -100.609375 94.726562 -99.140625 94.65625 -97.390625 C 94.582031 -95.640625 93.707031 -93.78125 92.03125 -91.8125 L 46.21875 -48.328125 L 46.21875 -57.5625 L 96.015625 -10.71875 C 97.984375 -8.757812 98.96875 -6.867188 98.96875 -5.046875 C 98.96875 -3.222656 98.300781 -1.679688 96.96875 -0.421875 C 95.632812 0.835938 93.914062 1.46875 91.8125 1.46875 C 89.289062 1.46875 87.257812 0.941406 85.71875 -0.109375 C 84.175781 -1.160156 82.285156 -2.734375 80.046875 -4.828125 L 33.40625 -47.90625 L 32.984375 -47.90625 L 32.984375 -7.359375 C 32.984375 -1.472656 30.113281 1.46875 24.375 1.46875 Z M 24.375 1.46875 "/></g></g></g><g fill="#3d3d3d" fill-opacity="1"><g transform="translate(1169.562882, 287.57699)"><g><path d="M 50.421875 1.890625 C 44.117188 1.890625 37.78125 1.117188 31.40625 -0.421875 C 25.03125 -1.960938 19.113281 -4.625 13.65625 -8.40625 C 12.257812 -9.382812 11.28125 -10.539062 10.71875 -11.875 C 10.15625 -13.207031 9.976562 -14.535156 10.1875 -15.859375 C 10.394531 -17.191406 10.953125 -18.347656 11.859375 -19.328125 C 12.773438 -20.304688 13.898438 -20.898438 15.234375 -21.109375 C 16.566406 -21.328125 18.070312 -21.015625 19.75 -20.171875 C 25.207031 -16.804688 30.492188 -14.457031 35.609375 -13.125 C 40.722656 -11.800781 45.800781 -11.140625 50.84375 -11.140625 C 58.832031 -11.140625 64.859375 -12.609375 68.921875 -15.546875 C 72.984375 -18.484375 75.015625 -22.476562 75.015625 -27.53125 C 75.015625 -31.445312 73.679688 -34.5625 71.015625 -36.875 C 68.359375 -39.1875 64.15625 -40.972656 58.40625 -42.234375 L 39.296875 -46.4375 C 30.460938 -48.257812 23.910156 -51.410156 19.640625 -55.890625 C 15.367188 -60.367188 13.234375 -66.179688 13.234375 -73.328125 C 13.234375 -79.628906 14.878906 -85.054688 18.171875 -89.609375 C 21.460938 -94.160156 26.117188 -97.695312 32.140625 -100.21875 C 38.171875 -102.738281 45.175781 -104 53.15625 -104 C 59.320312 -104 65.171875 -103.191406 70.703125 -101.578125 C 76.234375 -99.972656 81.238281 -97.421875 85.71875 -93.921875 C 87.125 -92.941406 88.070312 -91.785156 88.5625 -90.453125 C 89.050781 -89.117188 89.117188 -87.785156 88.765625 -86.453125 C 88.421875 -85.128906 87.753906 -84.007812 86.765625 -83.09375 C 85.785156 -82.1875 84.597656 -81.660156 83.203125 -81.515625 C 81.804688 -81.378906 80.335938 -81.800781 78.796875 -82.78125 C 74.585938 -85.582031 70.3125 -87.648438 65.96875 -88.984375 C 61.632812 -90.316406 57.363281 -90.984375 53.15625 -90.984375 C 45.3125 -90.984375 39.359375 -89.441406 35.296875 -86.359375 C 31.234375 -83.273438 29.203125 -79.210938 29.203125 -74.171875 C 29.203125 -70.242188 30.460938 -67.019531 32.984375 -64.5 C 35.503906 -61.976562 39.425781 -60.160156 44.75 -59.046875 L 63.875 -55.046875 C 72.976562 -53.085938 79.804688 -49.972656 84.359375 -45.703125 C 88.910156 -41.429688 91.1875 -35.648438 91.1875 -28.359375 C 91.1875 -19.117188 87.472656 -11.765625 80.046875 -6.296875 C 72.628906 -0.835938 62.753906 1.890625 50.421875 1.890625 Z M 50.421875 1.890625 "/></g></g></g></svg>